<?xml version="1.0" encoding="UTF-8" standalone="no"?><!-- Generator: Gravit.io --><svg xmlns="http://www.w3.org/2000/svg" xmlns:xlink="http://www.w3.org/1999/xlink" style="isolation:isolate" viewBox="711.102 364.192 219.797 170.754" width="219.797pt" height="170.754pt"><defs><clipPath id="_clipPath_39ExXkKHAxO8ke7A9megVS7jSt9LM8Lp"><rect x="711.102" y="364.192" width="219.797" height="170.754"/></clipPath></defs><g clip-path="url(#_clipPath_39ExXkKHAxO8ke7A9megVS7jSt9LM8Lp)"><path d=" M 773.117 364.192 L 810.242 364.192 L 810.242 534.946 L 771.324 534.946 L 748.227 457.321 L 748.227 534.946 L 711.102 534.946 L 711.102 364.192 L 748.227 364.192 L 773.117 441.079 L 773.117 364.192 Z  M 828.066 534.946 L 828.066 364.192 L 861.289 364.192 L 861.289 364.192 Q 893.457 364.192 904.795 367.146 L 904.795 367.146 L 904.795 367.146 Q 916.133 370.099 922.039 376.849 L 922.039 376.849 L 922.039 376.849 Q 927.945 383.599 929.422 391.878 L 929.422 391.878 L 929.422 391.878 Q 930.898 400.157 930.898 424.415 L 930.898 424.415 L 930.898 484.216 L 930.898 484.216 Q 930.898 507.208 928.736 514.96 L 928.736 514.96 L 928.736 514.96 Q 926.574 522.712 921.195 527.089 L 921.195 527.089 L 921.195 527.089 Q 915.816 531.466 907.906 533.206 L 907.906 533.206 L 907.906 533.206 Q 899.996 534.946 884.07 534.946 L 884.07 534.946 L 828.066 534.946 Z  M 872.469 393.407 L 872.469 393.407 L 872.469 505.731 L 872.469 505.731 Q 882.066 505.731 884.281 501.882 L 884.281 501.882 L 884.281 501.882 Q 886.496 498.032 886.496 480.946 L 886.496 480.946 L 886.496 414.606 L 886.496 414.606 Q 886.496 403.005 885.758 399.735 L 885.758 399.735 L 885.758 399.735 Q 885.02 396.466 882.383 394.937 L 882.383 394.937 L 882.383 394.937 Q 879.746 393.407 872.469 393.407 Z " fill="rgb(0,0,0)"/></g></svg>